<svg width="399" height="44" viewBox="0 0 399 44" fill="none" xmlns="http://www.w3.org/2000/svg">
<g filter="url(#filter0_d_690_1907)">
<rect x="2" y="1" width="394.667" height="40" rx="8" fill="white" shape-rendering="crispEdges"/>
<path d="M26.6719 27H25.1016L23.6328 23.625C23.2266 22.6979 22.6562 22.2344 21.9219 22.2344H20.7812V27H19.4688V15.7969H22.8125C23.8802 15.7969 24.7161 16.0651 25.3203 16.6016C25.9245 17.1328 26.2266 17.8568 26.2266 18.7734C26.2266 19.5703 25.9974 20.2448 25.5391 20.7969C25.0859 21.349 24.4818 21.7109 23.7266 21.8828V21.9141C24.1484 22.0651 24.5339 22.5078 24.8828 23.2422L26.6719 27ZM24.8516 18.8906C24.8516 18.2917 24.6562 17.8255 24.2656 17.4922C23.8802 17.1536 23.3177 16.9844 22.5781 16.9844H20.7812V21.0469H22.5156C23.2083 21.0469 23.7708 20.8464 24.2031 20.4453C24.6354 20.0443 24.8516 19.526 24.8516 18.8906ZM34.8672 23.3203H29.2188C29.2396 24.2214 29.4766 24.9115 29.9297 25.3906C30.388 25.8646 31.0208 26.1016 31.8281 26.1016C32.7344 26.1016 33.5599 25.8099 34.3047 25.2266V26.4219C33.6068 26.9375 32.6797 27.1953 31.5234 27.1953C30.3828 27.1953 29.4922 26.8281 28.8516 26.0938C28.2109 25.3542 27.8906 24.3333 27.8906 23.0312C27.8906 22.2396 28.0495 21.5182 28.3672 20.8672C28.6901 20.2109 29.1328 19.7031 29.6953 19.3438C30.2578 18.9844 30.8828 18.8047 31.5703 18.8047C32.6068 18.8047 33.4141 19.1432 33.9922 19.8203C34.5755 20.4922 34.8672 21.4349 34.8672 22.6484V23.3203ZM33.5547 22.2344C33.5443 21.4948 33.3646 20.9219 33.0156 20.5156C32.6719 20.1042 32.1849 19.8984 31.5547 19.8984C30.9609 19.8984 30.4531 20.112 30.0312 20.5391C29.6094 20.9661 29.3438 21.5312 29.2344 22.2344H33.5547ZM43.5156 30.6797H42.2344V25.625H42.2031C41.6458 26.6719 40.7344 27.1953 39.4688 27.1953C38.4531 27.1953 37.6432 26.8359 37.0391 26.1172C36.4401 25.3984 36.1406 24.4245 36.1406 23.1953C36.1406 21.8828 36.4714 20.8229 37.1328 20.0156C37.7995 19.2083 38.6953 18.8047 39.8203 18.8047C40.9193 18.8047 41.7135 19.237 42.2031 20.1016H42.2344V19H43.5156V30.6797ZM42.2344 23.3984V22.2344C42.2344 21.5729 42.0156 21.0182 41.5781 20.5703C41.1406 20.1224 40.5964 19.8984 39.9453 19.8984C39.1641 19.8984 38.5521 20.1875 38.1094 20.7656C37.6719 21.3438 37.4531 22.1406 37.4531 23.1562C37.4531 24.0625 37.6641 24.7812 38.0859 25.3125C38.513 25.8385 39.0755 26.1016 39.7734 26.1016C40.4922 26.1016 41.0807 25.8516 41.5391 25.3516C42.0026 24.8516 42.2344 24.2005 42.2344 23.3984ZM52.5703 27H51.2891V25.7344H51.2578C50.7266 26.7083 49.9062 27.1953 48.7969 27.1953C46.8854 27.1953 45.9297 26.0573 45.9297 23.7812V19H47.2109V23.5781C47.2109 25.2604 47.8568 26.1016 49.1484 26.1016C49.7839 26.1016 50.2995 25.8724 50.6953 25.4141C51.0911 24.9505 51.2891 24.349 51.2891 23.6094V19H52.5703V27ZM61.5391 23.3203H55.8906C55.9115 24.2214 56.1484 24.9115 56.6016 25.3906C57.0599 25.8646 57.6927 26.1016 58.5 26.1016C59.4062 26.1016 60.2318 25.8099 60.9766 25.2266V26.4219C60.2786 26.9375 59.3516 27.1953 58.1953 27.1953C57.0547 27.1953 56.1641 26.8281 55.5234 26.0938C54.8828 25.3542 54.5625 24.3333 54.5625 23.0312C54.5625 22.2396 54.7214 21.5182 55.0391 20.8672C55.362 20.2109 55.8047 19.7031 56.3672 19.3438C56.9297 18.9844 57.5547 18.8047 58.2422 18.8047C59.2786 18.8047 60.0859 19.1432 60.6641 19.8203C61.2474 20.4922 61.5391 21.4349 61.5391 22.6484V23.3203ZM60.2266 22.2344C60.2161 21.4948 60.0365 20.9219 59.6875 20.5156C59.3438 20.1042 58.8568 19.8984 58.2266 19.8984C57.6328 19.8984 57.125 20.112 56.7031 20.5391C56.2812 20.9661 56.0156 21.5312 55.9062 22.2344H60.2266ZM67.7891 24.8594C67.7891 25.5521 67.5208 26.1146 66.9844 26.5469C66.4531 26.9792 65.7448 27.1953 64.8594 27.1953C64.1042 27.1953 63.4427 27.0339 62.875 26.7109V25.3359C63.5052 25.8464 64.1979 26.1016 64.9531 26.1016C65.9688 26.1016 66.4766 25.7292 66.4766 24.9844C66.4766 24.6823 66.3776 24.4375 66.1797 24.25C65.9818 24.0573 65.5312 23.7995 64.8281 23.4766C64.1198 23.1745 63.6198 22.8516 63.3281 22.5078C63.0365 22.1589 62.8906 21.6979 62.8906 21.125C62.8906 20.4635 63.1562 19.9115 63.6875 19.4688C64.2188 19.026 64.8932 18.8047 65.7109 18.8047C66.3411 18.8047 66.9115 18.9297 67.4219 19.1797V20.4688C66.901 20.0885 66.2969 19.8984 65.6094 19.8984C65.1875 19.8984 64.8464 20.0026 64.5859 20.2109C64.3307 20.4193 64.2031 20.6875 64.2031 21.0156C64.2031 21.3698 64.3021 21.6432 64.5 21.8359C64.6979 22.0234 65.1068 22.2474 65.7266 22.5078C66.487 22.8307 67.0208 23.1693 67.3281 23.5234C67.6354 23.8776 67.7891 24.3229 67.7891 24.8594ZM73.3828 26.9219C73.0755 27.0938 72.6745 27.1797 72.1797 27.1797C70.7839 27.1797 70.0859 26.3932 70.0859 24.8203V20.0859H68.7109V19H70.0859V17.0469L71.3672 16.6328V19H73.3828V20.0859H71.3672V24.6016C71.3672 25.138 71.4583 25.5208 71.6406 25.75C71.8229 25.974 72.1276 26.0859 72.5547 26.0859C72.8724 26.0859 73.1484 26 73.3828 25.8281V26.9219ZM85.625 16.9844H82.3984V27H81.0859V16.9844H77.8516V15.7969H85.625V16.9844ZM93.5859 19L89.9062 28.2812C89.25 29.9323 88.3281 30.7578 87.1406 30.7578C86.8073 30.7578 86.5286 30.7266 86.3047 30.6641V29.5156C86.5755 29.6094 86.8255 29.6562 87.0547 29.6562C87.7057 29.6562 88.1927 29.2734 88.5156 28.5078L89.1562 26.9844L86.0312 19H87.4609L89.6172 25.1562L89.7812 25.7656H89.8281C89.849 25.651 89.901 25.4557 89.9844 25.1797L92.2578 19H93.5859ZM102.328 22.7578C102.328 24.112 101.997 25.1901 101.336 25.9922C100.674 26.7943 99.7891 27.1953 98.6797 27.1953C97.6276 27.1953 96.8281 26.7474 96.2812 25.8516H96.25V30.6797H94.9688V19H96.25V20.4062H96.2812C96.9115 19.3385 97.8333 18.8047 99.0469 18.8047C100.047 18.8047 100.844 19.1589 101.438 19.8672C102.031 20.5755 102.328 21.5391 102.328 22.7578ZM101.016 22.7422C101.016 21.8776 100.812 21.1875 100.406 20.6719C100 20.1562 99.4401 19.8984 98.7266 19.8984C97.9922 19.8984 97.3958 20.1536 96.9375 20.6641C96.4792 21.1745 96.25 21.8255 96.25 22.6172V23.7344C96.25 24.4062 96.4688 24.9688 96.9062 25.4219C97.349 25.875 97.8932 26.1016 98.5391 26.1016C99.3099 26.1016 99.9141 25.8047 100.352 25.2109C100.794 24.6172 101.016 23.7943 101.016 22.7422ZM110.68 23.3203H105.031C105.052 24.2214 105.289 24.9115 105.742 25.3906C106.201 25.8646 106.833 26.1016 107.641 26.1016C108.547 26.1016 109.372 25.8099 110.117 25.2266V26.4219C109.419 26.9375 108.492 27.1953 107.336 27.1953C106.195 27.1953 105.305 26.8281 104.664 26.0938C104.023 25.3542 103.703 24.3333 103.703 23.0312C103.703 22.2396 103.862 21.5182 104.18 20.8672C104.503 20.2109 104.945 19.7031 105.508 19.3438C106.07 18.9844 106.695 18.8047 107.383 18.8047C108.419 18.8047 109.227 19.1432 109.805 19.8203C110.388 20.4922 110.68 21.4349 110.68 22.6484V23.3203ZM109.367 22.2344C109.357 21.4948 109.177 20.9219 108.828 20.5156C108.484 20.1042 107.997 19.8984 107.367 19.8984C106.773 19.8984 106.266 20.112 105.844 20.5391C105.422 20.9661 105.156 21.5312 105.047 22.2344H109.367Z" fill="#989898"/>
<path d="M372.667 24L367.667 19L368.367 18.3L372.667 22.6L376.967 18.3L377.667 19L372.667 24Z" fill="black"/>
</g>
<defs>
<filter id="filter0_d_690_1907" x="0" y="0" width="398.667" height="44" filterUnits="userSpaceOnUse" color-interpolation-filters="sRGB">
<feFlood flood-opacity="0" result="BackgroundImageFix"/>
<feColorMatrix in="SourceAlpha" type="matrix" values="0 0 0 0 0 0 0 0 0 0 0 0 0 0 0 0 0 0 127 0" result="hardAlpha"/>
<feOffset dy="1"/>
<feGaussianBlur stdDeviation="1"/>
<feComposite in2="hardAlpha" operator="out"/>
<feColorMatrix type="matrix" values="0 0 0 0 0 0 0 0 0 0 0 0 0 0 0 0 0 0 0.14 0"/>
<feBlend mode="normal" in2="BackgroundImageFix" result="effect1_dropShadow_690_1907"/>
<feBlend mode="normal" in="SourceGraphic" in2="effect1_dropShadow_690_1907" result="shape"/>
</filter>
</defs>
</svg>
